<?xml version="1.0" encoding="UTF-8" standalone="no"?>
<svg width="16" height="16" viewBox="0 0 16 16" fill="none" xmlns="http://www.w3.org/2000/svg">
  <circle cx="8" cy="8" r="7.5" fill="#3D5AF1" stroke="#3D5AF1"/>
  <path d="M8 3.5C5.51472 3.5 3.5 5.51472 3.5 8C3.5 10.4853 5.51472 12.5 8 12.5C10.4853 12.5 12.5 10.4853 12.5 8C12.5 5.51472 10.4853 3.5 8 3.5ZM4.5 8C4.5 6.067 6.067 4.5 8 4.5C9.933 4.5 11.5 6.067 11.5 8C11.5 9.933 9.933 11.5 8 11.5C6.067 11.5 4.5 9.933 4.5 8Z" fill="white"/>
  <path d="M8 5.5C7.72386 5.5 7.5 5.72386 7.5 6V8.5C7.5 8.77614 7.72386 9 8 9H10C10.2761 9 10.5 8.77614 10.5 8.5C10.5 8.22386 10.2761 8 10 8H8.5V6C8.5 5.72386 8.27614 5.5 8 5.5Z" fill="white"/>
</svg>